<svg xmlns="http://www.w3.org/2000/svg" width="64" height="64" viewBox="0 0 64 64"><defs><linearGradient id="face" x1="10" y1="7" x2="49" y2="60" gradientUnits="userSpaceOnUse"><stop stop-color="#FFFFFF"/><stop offset=".45" stop-color="#E9E6F6"/><stop offset=".72" stop-color="#BDB7D8"/><stop offset="1" stop-color="#716B96"/></linearGradient></defs><g opacity=".2" transform="translate(0 3)"><path fill="url(#face)" fill-rule="evenodd" d="m27 5 10 0 2 8 7 4 8-2 5 9-6 6v8l6 6-5 9-8-2-7 4-2 8H27l-2-8-7-4-8 2-5-9 6-6v-8l-6-6 5-9 8 2 7-4Zm5 17a12 12 0 1 0 0 24 12 12 0 0 0 0-24Z"/><path d="m27 5-2 8-7 4-8-2-5 9 6 6" fill="none" stroke="#FFF" stroke-width="2" opacity=".75"/></g><path fill="url(#face)" fill-rule="evenodd" d="m27 5 10 0 2 8 7 4 8-2 5 9-6 6v8l6 6-5 9-8-2-7 4-2 8H27l-2-8-7-4-8 2-5-9 6-6v-8l-6-6 5-9 8 2 7-4Zm5 17a12 12 0 1 0 0 24 12 12 0 0 0 0-24Z"/><path d="m27 5-2 8-7 4-8-2-5 9 6 6" fill="none" stroke="#FFF" stroke-width="2" opacity=".75"/></svg>